<?xml version="1.0" encoding="UTF-8" standalone="no"?>
<svg
   xmlns:osb="http://www.openswatchbook.org/uri/2009/osb"
   xmlns:dc="http://purl.org/dc/elements/1.1/"
   xmlns:cc="http://creativecommons.org/ns#"
   xmlns:rdf="http://www.w3.org/1999/02/22-rdf-syntax-ns#"
   xmlns:svg="http://www.w3.org/2000/svg"
   xmlns="http://www.w3.org/2000/svg"
   xmlns:sodipodi="http://sodipodi.sourceforge.net/DTD/sodipodi-0.dtd"
   xmlns:inkscape="http://www.inkscape.org/namespaces/inkscape"
   version="1.0"
   width="2714.000000pt"
   height="919.000000pt"
   viewBox="0 0 2714.000000 919.000000"
   preserveAspectRatio="xMidYMid meet"
   id="svg62"
   sodipodi:docname="logo-tagline.svg"
   inkscape:version="0.92.5 (2060ec1f9f, 2020-04-08)">
  <metadata
     id="metadata68">
    <rdf:RDF>
      <cc:Work
         rdf:about="">
        <dc:format>image/svg+xml</dc:format>
        <dc:type
           rdf:resource="http://purl.org/dc/dcmitype/StillImage" />
      </cc:Work>
    </rdf:RDF>
  </metadata>
  <defs
     id="defs66">
    <linearGradient
       id="linearGradient4843"
       osb:paint="solid">
      <stop
         style="stop-color:#000000;stop-opacity:1;"
         offset="0"
         id="stop4841" />
    </linearGradient>
  </defs>
  <sodipodi:namedview
     pagecolor="#ffffff"
     bordercolor="#666666"
     borderopacity="1"
     objecttolerance="10"
     gridtolerance="10"
     guidetolerance="10"
     inkscape:pageopacity="0"
     inkscape:pageshadow="2"
     inkscape:window-width="1920"
     inkscape:window-height="1016"
     id="namedview64"
     showgrid="false"
     inkscape:zoom="0.33609718"
     inkscape:cx="1692.9723"
     inkscape:cy="651.67842"
     inkscape:window-x="0"
     inkscape:window-y="27"
     inkscape:window-maximized="1"
     inkscape:current-layer="svg62" />
  <path
     style="fill:#5f646a;stroke:none;stroke-width:0.1;fill-opacity:0.94117647"
     inkscape:connector-curvature="0"
     id="path2"
     d="m 1598.7,1.4 c -0.8,0.6 -1.7,2.2 -2,3.6 -0.3,1.4 -1.4,140.8 -2.3,309.9 l -1.7,307.4 2.6,2.3 c 2.6,2.2 2.6,2.2 50,2.5 26.1,0.2 49.7,0.2 52.6,0.1 l 5.1,-0.4 v -18.9 c 0,-10.8 0.4,-18.9 0.9,-18.9 0.5,0 5.6,3.1 11.3,6.9 36.1,23.9 71.5,37.6 113.3,43.8 17.1,2.5 58.4,2.5 74.5,0 57.4,-9 105.6,-32.5 145.9,-71.2 43.5,-41.7 70.4,-95 79.3,-157 2,-13.9 1.7,-56.2 -0.5,-70.5 -6.8,-43.4 -20.2,-78.1 -43.8,-113 -36.9,-54.6 -88.4,-90.4 -153.9,-107 -68.3,-17.4 -134.2,-8 -198.8,28.1 -6.9,3.9 -15.1,8.8 -18.3,11 -3.2,2.1 -6,3.9 -6.3,3.9 -0.3,0 -0.7,-27.6 -0.8,-61.3 -0.3,-60.5 -0.4,-61.3 -2.6,-67.1 C 1695.4,14.8 1680.5,4.8 1653.5,2.1 1636.8,0.5 1600.4,0 1598.7,1.4 Z M 1893,228.5 c 29.5,5.8 55.8,19.6 77.5,40.7 22.1,21.4 35.9,45.7 43.6,76.8 2,8.4 2.3,11.9 2.4,30.5 0,23.1 -1,30 -6.6,47 -7.9,23.7 -19.5,42.2 -37.8,60.6 -22,21.9 -44.2,34.4 -75.1,42 -8.5,2.1 -11.9,2.3 -31,2.4 -17.2,0 -23.2,-0.4 -29.7,-1.8 -61.2,-13.5 -106.2,-58.7 -119.5,-120.1 -3.2,-14.8 -3.2,-43.6 0.1,-58.6 3.1,-14.7 6.2,-23.6 13,-37.5 21.9,-44.7 63.1,-74.7 114,-83 11.1,-1.9 37.4,-1.3 49.1,1 z" />
  <path
     style="fill:#5f646a;stroke:none;stroke-width:0.1;fill-opacity:0.94117647"
     inkscape:connector-curvature="0"
     id="path4"
     d="M 3.6,20.2 C 3.2,29.4 1.8,264 0.7,543.5 c -0.2,39.7 0.1,51.1 1.2,55.5 4.8,19.2 17.3,30.6 38.6,35.2 7.2,1.6 14.5,2.1 37,2.5 35.8,0.7 32.7,2.5 33.2,-19.3 0.2,-13.4 1.9,-334.4 2.5,-509.9 0.2,-49.8 0.2,-51.2 -2,-58.8 C 108.3,38.1 104.8,32.1 97.9,25.5 85.7,13.8 76.1,11.9 18.4,9.5 L 4.2,8.9 Z" />
  <path
     style="fill:#5f646a;stroke:none;stroke-width:0.1;fill-opacity:0.94117647"
     inkscape:connector-curvature="0"
     id="path6"
     d="m 2421.1,113.1 c -52.5,3.3 -106,24 -147.1,56.7 -12.1,9.7 -31.5,29 -41.2,41.2 -29.8,37.3 -48.6,80.3 -55.9,128.1 -3.2,20.4 -3.2,55.2 -0.1,75.4 7.7,49.9 26.1,91.7 57.4,130.7 48.2,59.9 118.4,94.1 198.3,96.5 26.7,0.8 46.3,-1.3 71.5,-7.7 28.3,-7.1 57.8,-20.3 84.3,-37.6 5.4,-3.5 10,-6.4 10.3,-6.4 0.3,0 0.4,8.7 0.2,19.3 l -0.3,19.4 49.5,0.7 c 27.2,0.4 51.4,0.4 53.7,0 2.4,-0.3 4.8,-1.3 5.5,-2.2 1.5,-1.8 2.4,-93.9 2.9,-315.2 0.4,-153.3 0.7,-145 -5.4,-158 -3.7,-7.9 -13,-17.6 -20.5,-21.4 -9.4,-4.7 -15.1,-5.7 -41.7,-6.6 -37.4,-1.4 -36.2,-1.4 -39,1.5 -2.5,2.4 -2.5,2.6 -2.5,20.5 0,9.9 -0.2,18 -0.4,18 -0.3,0 -5.6,-3.3 -11.8,-7.4 -35.3,-23 -69.1,-36.5 -106.9,-42.6 -10.9,-1.7 -40.9,-4.2 -46.4,-3.8 -1.1,0 -7.6,0.4 -14.4,0.9 z m 49,115.7 c 30.6,7.2 53.9,20.1 76,42.1 23.7,23.7 37.5,50 42.9,81.6 10,58.4 -17.2,119.1 -68.1,152.2 -50.7,33 -116.2,32.1 -167.4,-2.2 -62.4,-41.8 -84.2,-126.5 -49.9,-193.6 7.6,-14.9 16.1,-26.5 27.9,-38.4 21,-21 47.8,-35.5 76.1,-41.4 14.3,-3 14.2,-3 34.9,-2.6 14.5,0.3 21,0.8 27.6,2.3 z" />
  <path
     style="fill:#ec2045;stroke:none;stroke-width:0.1;fill-opacity:1"
     inkscape:connector-curvature="0"
     id="path8"
     d="m 712.5,118.1 c -66.9,6.8 -129,39.2 -171.1,89.3 -10.7,12.7 -25.7,35.1 -32.2,48.1 l -5.1,10 42.2,0.6 c 23.2,0.3 59.4,0.7 80.5,0.8 l 38.2,0.1 0.1,-22.3 c 0.1,-12.2 0.4,-27.9 0.8,-34.8 l 0.6,-12.7 127.5,88.5 c 70.1,48.7 127.5,88.9 127.5,89.4 0,0.8 -254.8,173.9 -256,173.9 -0.3,0 -0.5,-14.8 -0.5,-32.8 v -32.9 l -23.2,-0.6 c -30.4,-0.9 -136.8,-0.9 -136.8,0 0,1.5 10.7,20.5 16.7,29.8 19.3,29.6 45.6,55.9 74.8,75.1 29.8,19.5 65.5,33.2 101.5,38.9 13.9,2.2 49.5,3.1 64.2,1.6 86.8,-9 163,-61.1 202.4,-138.4 13.6,-26.7 21.5,-52 26,-83.2 2.4,-16.6 2.4,-49.4 0,-66.9 C 980.5,265.7 940,201 878.2,160 c -32.4,-21.6 -67,-34.7 -106.7,-40.6 -12.3,-1.8 -46.8,-2.6 -59,-1.3 z" />
  <path
     style="fill:#5f646a;stroke:none;stroke-width:0.1;fill-opacity:0.94117647"
     inkscape:connector-curvature="0"
     id="path10"
     d="m 1275,122.2 c -25.8,2.3 -56.7,10.1 -81.5,20.5 -8.4,3.5 -29.8,14.3 -37,18.7 -3.3,2 -6.4,3.6 -6.8,3.6 -0.4,0 -0.7,-6.4 -0.6,-14.2 0.3,-20.5 6.4,-18.4 -54.2,-19 -27.2,-0.3 -50.4,-0.2 -51.6,0.3 -1.2,0.4 -2.6,1.6 -3.2,2.7 -1.1,2 -3.6,360.7 -2.9,423.2 0.3,34.4 0.3,34.5 2.9,41.7 3.6,9.8 10.5,19.2 18.2,24.7 13.3,9.4 19.5,10.7 53.2,11.2 16.4,0.2 28,-0.1 29.5,-0.7 5.8,-2.2 5.4,4.8 6.2,-123.4 0.3,-64.9 0.8,-124.1 1.1,-131.5 1.6,-38.8 16.8,-74 43.7,-101 38.4,-38.3 93.6,-53.5 145.6,-39.9 34.1,8.8 66.4,31.6 85.6,60.3 7.2,10.9 10.5,17.3 19.3,38.1 3.8,8.8 7.2,16.4 7.6,16.9 0.7,0.7 90.4,-49.4 96.5,-53.9 1.9,-1.3 1.8,-1.6 -1.4,-11.2 -4.5,-13.1 -15.5,-35.4 -24,-48.3 -20.3,-31.2 -52.2,-61.6 -84.7,-81.2 C 1387.1,130.2 1330.6,117 1275,122.2 Z" />
  <path
     style="fill:#5f646a;stroke:none;stroke-width:0.1;fill-opacity:0.94117647"
     inkscape:connector-curvature="0"
     id="path12"
     d="m 319.5,132.5 c -1.6,0.7 -4.2,2.4 -5.6,3.7 -3.1,2.7 -46.8,54.6 -165.1,195.8 l -30.5,36.6 77,77.9 c 42.4,42.9 102.3,103.4 133,134.5 l 55.8,56.4 35.9,-35.9 c 19.8,-19.8 35.9,-36.3 35.8,-36.7 -0.2,-0.4 -43,-44 -95.3,-96.8 -52.2,-52.9 -95.1,-96.5 -95.3,-96.8 -0.1,-0.4 43.6,-54.3 97.2,-119.7 l 97.4,-119 -3.7,-0.7 c -2,-0.4 -32.8,-0.7 -68.6,-0.7 -53.1,0 -65.5,0.2 -68,1.4 z" />
  <path
     style="fill:#5f646a;stroke:none;stroke-width:0.1;fill-opacity:0.94117647"
     inkscape:connector-curvature="0"
     id="path14"
     d="m 710,296.2 v 19.3 l -68.4,-0.3 -68.3,-0.2 -0.7,3.1 c -0.3,1.7 -0.6,28.1 -0.6,58.5 V 432 h 46.3 c 25.5,0 56.6,0.3 69,0.7 l 22.7,0.6 0.2,17.8 0.3,17.8 69.7,-47.2 c 53.1,-36 69.4,-47.5 68.5,-48.3 -0.7,-0.7 -30.9,-21.8 -67.2,-46.9 -36.3,-25.2 -67.2,-46.6 -68.7,-47.7 l -2.8,-1.9 z" />
  <path
     style="fill:#5f646a;stroke:none;stroke-width:0.1;fill-opacity:0.94117647"
     inkscape:connector-curvature="0"
     id="path16"
     d="m 2439.5,740 c -15,3.7 -23.3,14.7 -24.3,32.2 l -0.5,8.8 h -6.3 -6.4 v 5.5 5.5 h 6.5 6.5 v 43.5 43.5 h 6.5 6.5 V 835.5 792 h 13 13 v -5.5 -5.5 h -13 -13 v -4.8 c 0,-15.2 8.6,-25.1 21.8,-25.2 h 5.2 v -6 -6 l -6.2,0.1 c -3.5,0.1 -7.6,0.4 -9.3,0.9 z" />
  <path
     style="fill:#5f646a;stroke:none;stroke-width:0.1;fill-opacity:0.94117647"
     inkscape:connector-curvature="0"
     id="path18"
     d="m 1437.2,802.3 0.3,62.3 2.5,4.9 c 3.4,6.6 10.5,10.5 19.2,10.5 h 5.8 v -6 c 0,-6 0,-6 -2.9,-6 -4.7,0 -7.9,-1.7 -9.8,-5.2 -1.7,-3.1 -1.8,-7.8 -2.1,-63.1 l -0.3,-59.7 h -6.5 -6.5 z" />
  <path
     style="fill:#5f646a;stroke:none;stroke-width:0.1;fill-opacity:0.94117647"
     inkscape:connector-curvature="0"
     id="path20"
     d="m 1487,748 v 8 h 7 7 v -8 -8 h -7 -7 z" />
  <path
     style="fill:#5f646a;stroke:none;stroke-width:0.1;fill-opacity:0.94117647"
     inkscape:connector-curvature="0"
     id="path22"
     d="m 1969,748 v 8 h 7 7 v -8 -8 h -7 -7 z" />
  <path
     style="fill:#5f646a;stroke:none;stroke-width:0.1;fill-opacity:0.94117647"
     inkscape:connector-curvature="0"
     id="path24"
     d="m 2314.2,802.7 0.3,62.8 2.3,4.2 c 3.4,6.5 8.7,9.5 17.7,10.1 l 7.5,0.5 v -6.2 -6.1 h -3.9 c -5.2,0 -8.6,-2.9 -10,-8.4 -0.7,-3.1 -1.1,-22.7 -1.1,-62 V 740 h -6.5 -6.6 z" />
  <path
     style="fill:#5f646a;stroke:none;stroke-width:0.1;fill-opacity:0.94117647"
     inkscape:connector-curvature="0"
     id="path26"
     d="m 2364,748 v 8 h 6.5 6.5 v -8 -8 h -6.5 -6.5 z" />
  <path
     style="fill:#5f646a;stroke:none;stroke-width:0.1;fill-opacity:0.94117647"
     inkscape:connector-curvature="0"
     id="path28"
     d="m 2474,748 v 8 h 6.5 6.5 v -8 -8 h -6.5 -6.5 z" />
  <path
     style="fill:#5f646a;stroke:none;stroke-width:0.1;fill-opacity:0.94117647"
     inkscape:connector-curvature="0"
     id="path30"
     d="m 2701,768.2 v 28.1 l -2.9,-4.4 c -12.4,-18.6 -44.5,-19.3 -61,-1.4 -9.2,10.2 -13.1,21.7 -13.1,39 0,17.5 4.3,30.4 13.1,39.9 10.6,11.6 29.5,15.5 45.7,9.4 5.4,-2 14.8,-10.1 17.9,-15.3 1,-1.7 1.2,-0.5 1.2,6.7 l 0.1,8.8 h 6 6 V 809.5 740 h -6.5 -6.5 z m -23.3,22.3 c 14.7,4.4 23.4,19 23.5,39.2 0,19.7 -7.5,32.9 -21.8,38.3 -16.6,6.2 -33.3,-2.7 -39.6,-21 -2.9,-8.4 -3.2,-24.6 -0.6,-33.1 3.5,-11.1 11.2,-19.6 21,-23 6.5,-2.2 10.9,-2.4 17.5,-0.4 z" />
  <path
     style="fill:#5f646a;stroke:none;stroke-width:0.1;fill-opacity:0.94117647"
     inkscape:connector-curvature="0"
     id="path32"
     d="m 1110.4,778 c -29,4.5 -47.8,30 -43.6,59.3 2.4,16.4 13.1,31.6 27.2,38.5 30.7,15.1 66.2,-0.1 75.5,-32.2 1.3,-4.6 1.6,-8.5 1.3,-17.2 -0.4,-10.9 -0.6,-11.6 -4.7,-19.9 -5.2,-10.4 -12.2,-17.7 -21.8,-22.7 -10.3,-5.4 -23,-7.5 -33.9,-5.8 z m 15.8,12.1 c 12.4,2.6 22.4,10.7 28.1,22.7 2.9,6.1 3.2,7.5 3.1,16.2 0,7.4 -0.5,10.8 -2.3,15.3 -8.3,21.2 -31.8,31.2 -52.1,22.1 -7.4,-3.3 -16,-12.1 -19.8,-20.1 -2.4,-5.2 -2.7,-6.9 -2.7,-16.8 0,-10.2 0.2,-11.5 3.1,-17.5 5.2,-11.1 16,-19.7 27.4,-21.9 6.4,-1.3 9.2,-1.2 15.2,0 z" />
  <path
     style="fill:#5f646a;stroke:none;stroke-width:0.1;fill-opacity:0.94117647"
     inkscape:connector-curvature="0"
     id="path34"
     d="m 1664.1,778 c -20.3,3 -35.1,17.4 -39.6,38.5 -4.9,23.2 3.3,45.3 20.9,56.7 18.1,11.7 43.4,11.1 61.8,-1.4 5.2,-3.6 5.2,-3.6 1.4,-9.7 l -2.6,-4.1 -5,3.6 c -8,5.7 -15,7.8 -26,7.9 -8.6,0 -10.1,-0.3 -16,-3.1 -12.1,-5.7 -20.6,-17.6 -21.7,-30.4 l -0.6,-6 h 38.1 38.2 l 0.6,-2.5 c 0.9,-3.6 -0.5,-14.9 -2.6,-21.7 -4.9,-15.6 -16.1,-25.5 -31.7,-27.8 -7.5,-1.1 -7.6,-1.1 -15.2,0 z m 20.6,13.6 c 8.4,4.1 13.8,12.1 15,22.4 l 0.6,5 h -31.6 -31.6 l 1.5,-5.3 c 0.9,-2.8 2.6,-7.1 3.9,-9.3 8.2,-14.1 27.5,-20 42.2,-12.8 z" />
  <path
     style="fill:#5f646a;stroke:none;stroke-width:0.1;fill-opacity:0.94117647"
     inkscape:connector-curvature="0"
     id="path36"
     d="m 1761.4,778 c -18.1,2.7 -29.2,17 -25.4,32.9 2.3,9.6 10,15.9 29,23.6 13.6,5.5 16.8,7.4 21,12.2 2.9,3.2 3.2,4.1 2.8,8.3 -0.6,5.6 -2.9,9.1 -8.3,12.2 -3.4,1.9 -5.4,2.3 -12.5,2.3 -9.9,-0.1 -17.3,-2.5 -24.6,-8.2 -2.5,-1.9 -4.7,-3.3 -4.8,-3.1 -0.1,0.2 -1.7,2.2 -3.5,4.6 l -3.4,4.3 2.4,2.5 c 4,4.2 17.5,10.3 25.8,11.5 26.5,4 46.1,-11 42.1,-32.1 -1.9,-9.8 -9.2,-16.6 -24.7,-23 -23.2,-9.5 -28.3,-13.3 -28.3,-21.4 0,-15.2 22.9,-20.6 40.5,-9.5 l 4.5,2.9 3,-4.8 2.9,-4.7 -2,-2.1 c -3.1,-3.3 -12.8,-7.2 -20.5,-8.4 -7.7,-1.1 -8.7,-1.1 -16,0 z" />
  <path
     style="fill:#5f646a;stroke:none;stroke-width:0.1;fill-opacity:0.94117647"
     inkscape:connector-curvature="0"
     id="path38"
     d="m 1902.1,778.1 c -2.9,0.5 -8,2.4 -11.3,4.1 -9.4,5 -13.8,12.2 -13.8,22.7 0,12.1 7.3,20.3 23.8,27.1 13.7,5.6 22.6,10.1 25.4,12.7 8.5,8.1 4,20.7 -8.6,24.3 -5.6,1.5 -15.4,0.8 -21.7,-1.6 -2.4,-0.9 -6.9,-3.4 -10,-5.5 l -5.6,-3.7 -3.6,4.8 -3.7,4.9 5.6,4 c 18.1,13 45.4,13 58.3,0 5.4,-5.4 6.6,-8.5 6.6,-18.1 0,-8 -0.2,-8.9 -3,-13 -4.4,-6.2 -11.8,-10.9 -26.5,-16.8 -7.2,-2.9 -14.8,-6.5 -17.1,-8.2 -13.3,-9.6 -4.6,-26.8 13.6,-26.8 6.3,0 15.6,2.7 20.3,6 2.3,1.7 4.4,3 4.6,3 0.7,0 5.6,-8.8 5.6,-9.9 0,-1.7 -7.9,-6.3 -14,-8.2 -7.1,-2.2 -18.1,-3 -24.9,-1.8 z" />
  <path
     style="fill:#5f646a;stroke:none;stroke-width:0.1;fill-opacity:0.94117647"
     inkscape:connector-curvature="0"
     id="path40"
     d="m 2058.4,778 c -10.3,2.1 -21.5,10.3 -26.9,19.4 -1.5,2.5 -2.8,4.6 -2.8,4.6 -0.1,0 0,-4.9 0.1,-11 l 0.4,-11 h -6.6 -6.6 v 49.5 49.5 h 6.5 6.5 v -27.3 c 0,-22.2 0.3,-28.4 1.6,-32.8 5.3,-17.7 18.2,-29.3 32.9,-29.4 10,0 16.6,4.8 19.6,14.4 0.8,2.3 1.4,16 1.6,39.3 l 0.5,35.8 h 6.4 6.4 v -27.9 c 0,-24.5 0.2,-28.7 1.9,-34 4.7,-15.1 15.6,-25.6 28.8,-27.7 6.1,-0.9 14.4,1.8 18.2,6.1 5.6,6.5 6.1,10.1 6.1,48.7 V 879 h 6.6 6.5 l -0.3,-39.3 c -0.3,-37.9 -0.4,-39.4 -2.5,-44.7 -2.4,-5.9 -7.7,-11.7 -12.9,-14.4 -4.4,-2.2 -15.8,-3.8 -21.3,-3 -12.1,1.8 -22.6,8.4 -29.1,18.5 l -3.8,6 -1.6,-5.3 c -2.5,-8.8 -8.4,-15 -16.6,-17.6 -5.1,-1.6 -14.9,-2.2 -19.6,-1.2 z" />
  <path
     style="fill:#5f646a;stroke:none;stroke-width:0.1;fill-opacity:0.94117647"
     inkscape:connector-curvature="0"
     id="path42"
     d="m 2237,778.1 c -10.1,1.7 -20.3,8.6 -25.7,17.5 -1,1.6 -1.2,0.4 -1.2,-6.9 L 2210,780 h -6 -6 v 69.5 69.5 h 6.5 6.5 v -28.2 -28.1 l 2.9,3.9 c 14,19.4 43.6,20.4 61,1.9 9.4,-9.9 13.4,-21.5 13.4,-39 0,-28.7 -13.3,-47.8 -35.8,-51.5 -6.8,-1.1 -7.9,-1.1 -15.5,0.1 z m 17.6,13.4 c 5.1,2.1 13.1,10.1 15.8,15.9 5.9,12.7 6.2,30.1 0.5,43.4 -1,2.3 -4.2,6.7 -7,9.7 -11.8,12.5 -29.9,12.7 -41.8,0.5 -13,-13.4 -15.1,-41.1 -4.2,-58.1 7.2,-11.5 24.1,-16.7 36.7,-11.4 z" />
  <path
     style="fill:#5f646a;stroke:none;stroke-width:0.1;fill-opacity:0.94117647"
     inkscape:connector-curvature="0"
     id="path44"
     d="m 2553.6,778.1 c -7.2,1.1 -17.4,5.7 -23.4,10.6 -16.6,13.6 -22,43.5 -11.7,64.8 6.2,13 16.1,21.5 30,25.7 9.8,3.1 23.4,3.1 33,0.1 8,-2.5 20,-9.5 19.9,-11.5 -0.1,-0.8 -1.3,-3.3 -2.8,-5.6 l -2.6,-4.2 -4.8,3.4 c -8.5,6.1 -14.4,8 -25.7,8 -9,0.1 -10.7,-0.2 -16.3,-2.8 -11.9,-5.5 -20.5,-17.8 -21.9,-31.3 l -0.6,-5.3 38.4,-0.2 38.4,-0.3 0.3,-4.3 c 0.5,-7 -1.6,-18.2 -4.8,-24.9 -5.6,-12.2 -16.1,-20.1 -29.1,-22.3 -7.2,-1.1 -8,-1.1 -16.3,0.1 z m 20.5,13 c 8.2,3.6 14.1,12.1 15.8,22.9 l 0.8,5 h -31.8 -31.8 l 1.5,-5.3 c 6,-20.2 26.9,-30.6 45.5,-22.6 z" />
  <path
     style="fill:#5f646a;stroke:none;stroke-width:0.1;fill-opacity:0.94117647"
     inkscape:connector-curvature="0"
     id="path46"
     d="m 1350,779.9 c -8,2.5 -15.7,9.6 -20,18.6 l -2.9,6 -0.1,-12.3 V 780 h -6.5 -6.5 v 49.5 49.5 h 6.5 6.5 v -23.5 c 0,-17.7 0.4,-25.5 1.6,-31.3 4,-19.2 14.5,-30.8 28.9,-32 l 6.5,-0.5 v -6.3 -6.4 l -5.7,0.1 c -3.2,0 -6.9,0.4 -8.3,0.8 z" />
  <path
     style="fill:#5f646a;stroke:none;stroke-width:0.1;fill-opacity:0.94117647"
     inkscape:connector-curvature="0"
     id="path48"
     d="m 1196.2,819.2 c 0.3,34.7 0.6,39.8 2.1,43.8 3.1,7.9 6.5,11.8 13.1,15 18.5,9 43.8,1.2 54.3,-16.7 1.4,-2.4 2.6,-4.3 2.6,-4.3 0.1,0 0,4.9 -0.1,11 l -0.4,11 h 6.6 6.6 V 829.5 780 h -6.5 -6.5 v 26.3 c 0,34.6 -1.7,41.5 -13,52.8 -6.9,7 -14,9.9 -24.1,9.9 -8.2,0 -12.5,-1.6 -16.2,-5.9 -5.2,-6.3 -5.7,-10.2 -5.7,-48.3 V 780 h -6.6 -6.5 z" />
  <path
     style="fill:#5f646a;stroke:none;stroke-width:0.1;fill-opacity:0.94117647"
     inkscape:connector-curvature="0"
     id="path50"
     d="M 1487,829.5 V 879 h 7 7 V 829.5 780 h -7 -7 z" />
  <path
     style="fill:#5f646a;stroke:none;stroke-width:0.1;fill-opacity:0.94117647"
     inkscape:connector-curvature="0"
     id="path52"
     d="m 1520,780.2 c 0,0.2 8.5,22.3 18.9,49.3 l 18.8,49 7.6,0.3 7.5,0.3 2,-5.3 c 1.1,-2.9 9.5,-24.8 18.6,-48.7 9.1,-23.8 16.6,-43.7 16.6,-44.3 0,-0.5 -3,-0.8 -6.7,-0.6 l -6.7,0.3 -13.3,35 c -7.3,19.2 -14.2,38.1 -15.4,41.8 -1.2,3.8 -2.5,6.5 -2.9,6 -0.4,-0.4 -1.2,-2.8 -1.9,-5.3 -0.6,-2.5 -7.3,-20.9 -15,-41 l -13.8,-36.5 -7.2,-0.3 c -3.9,-0.2 -7.1,-0.2 -7.1,0 z" />
  <path
     style="fill:#5f646a;stroke:none;stroke-width:0.1;fill-opacity:0.94117647"
     inkscape:connector-curvature="0"
     id="path54"
     d="M 1970,829.5 V 879 h 6.5 6.5 V 829.5 780 h -6.5 -6.5 z" />
  <path
     style="fill:#5f646a;stroke:none;stroke-width:0.1;fill-opacity:0.94117647"
     inkscape:connector-curvature="0"
     id="path56"
     d="M 2364,829.5 V 879 h 6.5 6.5 V 829.5 780 h -6.5 -6.5 z" />
  <path
     style="fill:#5f646a;stroke:none;stroke-width:0.1;fill-opacity:0.94117647"
     inkscape:connector-curvature="0"
     id="path58"
     d="M 2474,829.5 V 879 h 6.5 6.5 V 829.5 780 h -6.5 -6.5 z" />
</svg>
